<?xml version="1.0" encoding="utf-8"?>
<!-- Generator: Adobe Illustrator 23.1.1, SVG Export Plug-In . SVG Version: 6.00 Build 0)  -->
<svg version="1.1" id="Layer_1" xmlns="http://www.w3.org/2000/svg" xmlns:xlink="http://www.w3.org/1999/xlink" x="0px" y="0px"
	 viewBox="0 0 24 24" style="enable-background:new 0 0 24 24;" xml:space="preserve">
<style type="text/css">
	.st0{fill:#010101;}
</style>
<g>
	<path class="st0" d="M23.75,18.53c0.15-2.06-2.02-3.47-3.34-4.13c-1.52-0.76-4.83-1.63-7.85-2.38c-5.95-1.67-11.12,1.11-11.43,1.42
		l-0.1,0.1l-0.51,2.21l-0.24,2.74c0,0.57,0.82,1.31,2.43,2.21c0.45,0.67,1.21,1.11,2.07,1.11c0.89,0,1.67-0.47,2.11-1.18h8.87
		c0.47,0.71,1.27,1.18,2.19,1.18c0.95,0,1.78-0.52,2.24-1.28h2.12c0.71,0,1.44-0.54,1.44-1.44L23.75,18.53z M4.78,20.8
		c-0.83,0-1.5-0.67-1.5-1.5s0.67-1.5,1.5-1.5s1.5,0.67,1.5,1.5S5.61,20.8,4.78,20.8z M17.95,20.8c-0.89,0-1.62-0.73-1.62-1.62
		s0.73-1.62,1.62-1.62s1.62,0.73,1.62,1.62S18.84,20.8,17.95,20.8z M22.75,19.08c0,0.32-0.26,0.44-0.44,0.44h-1.77
		c0.01-0.11,0.03-0.22,0.03-0.34c0-1.44-1.18-2.62-2.62-2.62s-2.62,1.18-2.62,2.62c0,0.15,0.02,0.3,0.04,0.44H7.25
		c0.01-0.11,0.03-0.21,0.03-0.32c0-1.38-1.12-2.5-2.5-2.5c-1.36,0-2.47,1.1-2.5,2.46c-0.51-0.34-0.9-0.65-1-0.82l0.22-2.54l0.42-1.8
		c1.04-0.61,5.48-2.49,10.38-1.11c2.81,0.7,6.21,1.59,7.66,2.31c0.87,0.44,2.9,1.63,2.78,3.2V19.08z"/>
	<rect x="11.48" y="6.78" class="st0" width="1" height="1.01"/>
	<rect x="11.48" y="2.78" class="st0" width="1" height="1.01"/>
	<rect x="11.48" y="4.78" class="st0" width="1" height="1.01"/>
</g>
</svg>
