<?xml version="1.0" encoding="utf-8"?>
<!-- Generator: Adobe Illustrator 23.1.1, SVG Export Plug-In . SVG Version: 6.00 Build 0)  -->
<svg version="1.1" id="Layer_1" xmlns="http://www.w3.org/2000/svg" xmlns:xlink="http://www.w3.org/1999/xlink" x="0px" y="0px"
	 viewBox="0 0 24 24" style="enable-background:new 0 0 24 24;" xml:space="preserve">
<style type="text/css">
	.st0{display:none;}
	.st1{display:inline;fill:none;stroke:#070707;stroke-miterlimit:10;}
</style>
<path d="M18.3,13.4c-1.8-0.7-4.4-1.6-5.7-1.9v-1.3h-1c-0.5,0-0.9-0.4-0.9-1c0-0.5,0.4-1,0.9-1c0.4,0,0.8,0.3,0.9,0.7l0.9-0.3
	c-0.3-0.8-1-1.3-1.8-1.3c-1,0-1.9,0.9-1.9,2c0,1.1,0.8,2,1.9,2v0.2c-1.2,0.3-4,1.2-5.9,1.9C4.2,14.1,4,15.6,4,16.3v0.4h8h8v-0.4
	C20,15.5,19.8,14.1,18.3,13.4z M12,15.8H5.1c0-0.4,0.2-1.1,1-1.4c2.3-0.9,5.2-1.9,5.9-2c0.7,0.1,3.6,1,5.9,2c0.8,0.3,1,0.9,1,1.4H12
	z"/>
<g class="st0">
	<path class="st1" d="M6.6,7.6L6.6,7.6c1,0,1.8-0.8,1.8-1.8V4.5c0-1-0.8-1.8-1.8-1.8l0,0c-1,0-1.8,0.8-1.8,1.8v1.2
		C4.8,6.8,5.6,7.6,6.6,7.6z"/>
	<path class="st1" d="M7.3,15.9h2.5v-5.6c-0.2-0.8-1-1.4-1.7-1.4H5.6c-0.8,0-1.5,0.6-1.7,1.5v5.5h2.4"/>
	<path class="st1" d="M18.3,7.5L18.3,7.5c1,0,1.8-0.8,1.8-1.8V4.4c0-1-0.8-1.8-1.8-1.8l0,0c-1,0-1.8,0.8-1.8,1.8v1.2
		C16.4,6.7,17.3,7.5,18.3,7.5z"/>
	<path class="st1" d="M18.8,17.4h2.9c0.1,0,0.3-0.1,0.2-0.3l-1.1-6.8c-0.2-0.9-1.1-1.4-2-1.4h-1c-0.9,0-1.8,0.6-2,1.5L14.7,17
		c0,0.2,0.1,0.4,0.3,0.4h1.8"/>
	<line class="st1" x1="12.3" y1="4.3" x2="12.3" y2="20.4"/>
	<line class="st1" x1="7.8" y1="15.9" x2="7.8" y2="21.4"/>
	<line class="st1" x1="5.8" y1="15.9" x2="5.8" y2="21.4"/>
	<line class="st1" x1="19.3" y1="16.8" x2="19.3" y2="21.4"/>
	<line class="st1" x1="17.3" y1="16.8" x2="17.3" y2="21.4"/>
</g>
</svg>
