<?xml version="1.0" encoding="utf-8"?>
<!-- Generator: Adobe Illustrator 23.1.1, SVG Export Plug-In . SVG Version: 6.00 Build 0)  -->
<svg version="1.1" id="Lager_1" xmlns="http://www.w3.org/2000/svg" xmlns:xlink="http://www.w3.org/1999/xlink" x="0px" y="0px"
	 viewBox="0 0 24 24" style="enable-background:new 0 0 24 24;" xml:space="preserve">
<title>Ericsson icons-exported icons 2019-07-25</title>
<g>
	<path d="M18.5,12V9.8l-6-3v-1c0.4-0.1,0.8,0,1.3,0.2c0.7,0.2,1.5,0.5,2.4-0.1l0.2-0.1V2.3l-0.7,0.4c-0.5,0.3-0.9,0.1-1.6-0.1
		c-0.5-0.2-1.1-0.4-1.7-0.3V1.6h-1v1.1l0,0v3.6l0,0v0.4l-6,3V12H1v10.3h22V12H18.5z M13.9,3.5c0.5,0.2,1,0.4,1.6,0.3v1.3
		c-0.4,0.1-0.8,0-1.4-0.2c-0.4-0.1-0.8-0.3-1.3-0.3c-0.1,0-0.2,0-0.3,0V3.3C12.9,3.2,13.3,3.3,13.9,3.5z M15.1,21.3h-2.5V17h2.5
		V21.3z M11.6,21.3H9.1V17h2.5V21.3z M22,21.3h-5.9V16h-8v5.3H2V13h4.5v-2.6L12,7.6l5.5,2.8V13H22V21.3z"/>
	<path d="M12,10.4c-1.1,0-2,0.9-2,2c0,1.1,0.9,2,2,2c1.1,0,2-0.9,2-2C14,11.4,13.1,10.4,12,10.4z M12,13.5c-0.6,0-1-0.5-1-1
		s0.5-1,1-1c0.6,0,1,0.5,1,1S12.6,13.5,12,13.5z"/>
	<path d="M3,19.5h3.5V16H3V19.5z M4,17h1.5v1.5H4V17z"/>
	<path d="M17.5,19.5H21V16h-3.5V19.5z M18.5,17H20v1.5h-1.5V17z"/>
</g>
</svg>
