<?xml version="1.0" encoding="utf-8"?>
<!-- Generator: Adobe Illustrator 23.1.1, SVG Export Plug-In . SVG Version: 6.00 Build 0)  -->
<svg version="1.1" id="Layer_1" xmlns="http://www.w3.org/2000/svg" xmlns:xlink="http://www.w3.org/1999/xlink" x="0px" y="0px"
	 viewBox="0 0 24 24" style="enable-background:new 0 0 24 24;" xml:space="preserve">
<g id="Lager_1">
	<title>Rityta 49 kopia 33</title>
</g>
<g>
	<path d="M12,6.6c-3.6,0-6.5,2.8-6.5,6.4s2.9,6.5,6.5,6.5s6.5-2.8,6.5-6.4C18.5,9.5,15.6,6.6,12,6.6z M12,18.6c-3,0-5.5-2.5-5.5-5.5
		S9,7.6,12,7.6s5.5,2.4,5.5,5.5C17.5,16.1,15,18.6,12,18.6z"/>
	<path d="M6,8.3V8.1v-1v-3H5v3H4V3.9H3v3.2H2v-3H1v3v1v0.2h0c0,0.3,0.1,1.1,0.5,1.8C2,10.7,2.6,11,3,11.2v8.9h1v-8.9
		c0.4-0.2,1-0.5,1.4-1.1C5.9,9.4,6,8.6,6,8.3L6,8.3z M3.5,10.2c-0.2-0.1-0.7-0.3-1.1-0.7C2,9,2,8.2,2,8.2V8.1h3v0.1
		c0,0,0,0.8-0.5,1.3C4.2,9.9,3.7,10.2,3.5,10.2z"/>
	<path d="M20.7,3.9h-0.4c-1.2,0-2.3,1-2.3,2.3v2.4c0,1.1,0.9,2.1,2,2.3V20h1v-9.1c1.1-0.1,2-1.1,2-2.3V6.2C23,4.9,22,3.9,20.7,3.9z
		 M22,8.5c0,0.7-0.6,1.3-1.3,1.3h-0.4c-0.7,0-1.3-0.6-1.3-1.3V6.1c0-0.7,0.6-1.3,1.3-1.3h0.4c0.7,0,1.3,0.7,1.3,1.4V8.5z"/>
</g>
</svg>
